<svg id="Layer_1" data-name="Layer 1" xmlns="http://www.w3.org/2000/svg" viewBox="0 0 536.49 98.5"><defs><style>.cls-1{fill:#e90e8b;}.cls-2{fill:#ef68a5;}.cls-3{fill:#f39ac0;}.cls-4{fill:#f8cbdf;}.cls-22,.cls-26,.cls-30,.cls-34,.cls-5{fill:#fff;}.cls-6{fill:#b9e4fa;}.cls-7{fill:#6ecef5;}.cls-8{fill:#1cbbee;}.cls-9{fill:#29abe2;}.cls-10{font-size:16px;}.cls-10,.cls-11{fill:#231f20;font-family:ArialMT, Arial;}.cls-11,.cls-13{font-size:12px;}.cls-12,.cls-38{fill:none;stroke-miterlimit:10;}.cls-12{stroke:#231f20;}.cls-13{fill:#010101;font-family:MyriadPro-Regular, Myriad Pro;}.cls-14{letter-spacing:-0.01em;}.cls-15{letter-spacing:0em;}.cls-16{letter-spacing:0em;}.cls-17{letter-spacing:-0.01em;}.cls-18{letter-spacing:-0.01em;}.cls-19,.cls-23,.cls-27,.cls-31,.cls-35{fill:#046937;}.cls-20,.cls-24,.cls-28,.cls-32,.cls-36{fill:#67308f;}.cls-21,.cls-25,.cls-29,.cls-33,.cls-37{fill:#f79421;}.cls-22,.cls-23,.cls-24,.cls-25{opacity:0.75;}.cls-26,.cls-27,.cls-28,.cls-29{opacity:0.5;}.cls-30,.cls-31,.cls-32,.cls-33{opacity:0.25;}.cls-34,.cls-35,.cls-36,.cls-37{opacity:0;}.cls-38{stroke:#010101;stroke-width:0.5px;}.cls-39{letter-spacing:-0.01em;}.cls-40{letter-spacing:-0.01em;}</style></defs><title>Legend</title><rect class="cls-1" x="22.57" y="35.91" width="18" height="30"/><rect class="cls-2" x="40.57" y="35.91" width="18" height="30"/><rect class="cls-3" x="58.57" y="35.91" width="18" height="30"/><rect class="cls-4" x="76.57" y="35.91" width="18" height="30"/><rect class="cls-5" x="94.57" y="35.91" width="18" height="30"/><rect class="cls-6" x="112.57" y="35.91" width="18" height="30"/><rect class="cls-7" x="130.57" y="35.91" width="18" height="30"/><rect class="cls-8" x="148.57" y="35.91" width="18" height="30"/><rect class="cls-9" x="166.57" y="35.91" width="18" height="30"/><text class="cls-10" transform="translate(56.21 23.95)">Conservation</text><text class="cls-11" transform="translate(19.89 80.25)">high</text><text class="cls-11" transform="translate(167.36 80.26)">low</text><rect class="cls-12" x="0.5" y="0.5" width="533.21" height="97.5"/><text class="cls-13" transform="translate(243.68 83.99)"><tspan class="cls-14">C</tspan><tspan x="6.83" y="0">oil</tspan></text><text class="cls-13" transform="translate(300.23 83.99)">Helix</text><text class="cls-13" transform="translate(359.81 83.99)"><tspan class="cls-15">S</tspan><tspan x="5.88" y="0">t</tspan><tspan class="cls-16" x="9.85" y="0">r</tspan><tspan x="13.72" y="0">and</tspan></text><text class="cls-13" transform="translate(407.14 83.99)">Diso<tspan class="cls-17" x="22.14" y="0">r</tspan><tspan x="25.94" y="0">de</tspan><tspan class="cls-18" x="38.72" y="0">r</tspan><tspan x="42.53" y="0">ed</tspan></text><text class="cls-10" transform="translate(231.16 23.85)">Secondary Structure Prediction</text><rect class="cls-5" x="404.13" y="36.61" width="60" height="6"/><rect class="cls-19" x="344.13" y="36.61" width="60" height="6"/><rect class="cls-20" x="284.13" y="36.61" width="60" height="6"/><rect class="cls-21" x="224.13" y="36.61" width="60" height="6"/><rect class="cls-22" x="404.13" y="42.61" width="60" height="6"/><rect class="cls-23" x="344.13" y="42.61" width="60" height="6"/><rect class="cls-24" x="284.13" y="42.61" width="60" height="6"/><rect class="cls-25" x="224.13" y="42.61" width="60" height="6"/><rect class="cls-26" x="404.13" y="48.61" width="60" height="6"/><rect class="cls-27" x="344.13" y="48.61" width="60" height="6"/><rect class="cls-28" x="284.13" y="48.61" width="60" height="6"/><rect class="cls-29" x="224.13" y="48.61" width="60" height="6"/><rect class="cls-30" x="404.13" y="54.61" width="60" height="6"/><rect class="cls-31" x="344.13" y="54.61" width="60" height="6"/><rect class="cls-32" x="284.13" y="54.61" width="60" height="6"/><rect class="cls-33" x="224.13" y="54.61" width="60" height="6"/><rect class="cls-34" x="404.13" y="60.61" width="60" height="6"/><rect class="cls-35" x="344.13" y="60.61" width="60" height="6"/><rect class="cls-36" x="284.13" y="60.61" width="60" height="6"/><rect class="cls-37" x="224.13" y="60.61" width="60" height="6"/><rect class="cls-38" x="224.13" y="36.61" width="240" height="30"/><text class="cls-13" transform="translate(486.49 43.56)">high</text><text class="cls-13" transform="translate(486.27 68.77)">l<tspan class="cls-39" x="2.83" y="0">o</tspan><tspan x="9.34" y="0">w</tspan></text><text class="cls-13" transform="translate(468.83 27.94)"><tspan class="cls-14">C</tspan><tspan x="6.83" y="0">onfiden</tspan><tspan class="cls-40" x="45.79" y="0">c</tspan><tspan x="51.1" y="0">e</tspan></text></svg>